<?xml version="1.0" encoding="UTF-8"?><svg xmlns="http://www.w3.org/2000/svg" xmlns:xlink="http://www.w3.org/1999/xlink" width="977.0" height="760.0" viewBox="-170.0 130.0 977.0 760.0" version="1.1">
<rect x="-170.0" y="130.0" width="977.0" height="760.0" fill="rgb(255,255,255)"/>
<g id="s200366023">
<polygon id="s200366023" points="79.99999,340.0 279.99973,340.0 280.0,499.9999 80.00028,500.0 " fill="none" stroke-width="2.0" stroke="rgb(0,0,0)"/>
<g id="t200366023">
<text xml:space="preserve" x="167.5" y="369.75586" font-family="Sans,Helvetica" font-weight="bold" fill="rgb(0,0,0)" font-size="14">Cell</text>
<text xml:space="preserve" x="85.0" y="354.96973" font-family="Sans,Helvetica" fill="rgb(0,0,0)" font-size="14"/>
<path id="s64869262" d="M 80.0,382.83984 280.0,382.83984 " fill="none" stroke-width="2.0" stroke="rgb(0,0,0)"/>
<text xml:space="preserve" x="85.0" y="406.91602" font-family="Sans,Helvetica" fill="rgb(0,0,0)" font-size="14">- height : int</text>
<text xml:space="preserve" x="85.0" y="425.4961" font-family="Sans,Helvetica" fill="rgb(0,0,0)" font-size="14">- width : int</text>
<text xml:space="preserve" x="85.0" y="444.07617" font-family="Sans,Helvetica" fill="rgb(0,0,0)" font-size="14">+ Walls : Wall[4]</text>
<text xml:space="preserve" x="85.0" y="354.96973" font-family="Sans,Helvetica" fill="rgb(0,0,0)" font-size="14"/>
<path id="s163350447" d="M 80.0,457.16016 280.0,457.16016 " fill="none" stroke-width="2.0" stroke="rgb(0,0,0)"/>
<text xml:space="preserve" x="85.0" y="481.23633" font-family="Sans,Helvetica" fill="rgb(0,0,0)" font-size="14">+ Draw(IDrawProvider) : void</text>
</g>
</g>
<g id="s158020084">
<polygon id="s158020084" points="80.00001,560.0 279.99976,560.0 279.99963,680.0 80.00001,679.9998 " fill="none" stroke-width="2.0" stroke="rgb(0,0,0)"/>
<g id="t158020084">
<text xml:space="preserve" x="165.99988" y="588.33594" font-family="Sans,Helvetica" font-weight="bold" fill="rgb(0,0,0)" font-size="14">Wall</text>
<text xml:space="preserve" x="85.0" y="573.5498" font-family="Sans,Helvetica" fill="rgb(0,0,0)" font-size="14"/>
<path id="s116869052" d="M 80.0,601.4199 279.99976,601.4199 " fill="none" stroke-width="2.0" stroke="rgb(0,0,0)"/>
<text xml:space="preserve" x="85.0" y="625.4961" font-family="Sans,Helvetica" fill="rgb(0,0,0)" font-size="14">+ Enabled : bool</text>
<text xml:space="preserve" x="85.0" y="573.5498" font-family="Sans,Helvetica" fill="rgb(0,0,0)" font-size="14"/>
<path id="s109904709" d="M 80.0,638.5801 279.99976,638.5801 " fill="none" stroke-width="2.0" stroke="rgb(0,0,0)"/>
<text xml:space="preserve" x="85.0" y="662.65625" font-family="Sans,Helvetica" fill="rgb(0,0,0)" font-size="14">+ Draw(IDrawProvider) : void </text>
</g>
</g>
<g id="s43306269">
<polygon id="s43306269" points="-140.0,340.0 20.0,340.0 19.999817,420.0 -140.0,419.99994 " fill="none" stroke-width="2.0" stroke="rgb(0,0,0)"/>
<g id="t43306269">
<text xml:space="preserve" x="-100.5" y="376.20605" font-family="Sans,Helvetica" font-style="italic" fill="rgb(0,0,0)" font-size="14">&lt;&lt;interface&gt;&gt;</text>
<text xml:space="preserve" x="-105.0" y="394.78613" font-family="Sans,Helvetica" font-weight="bold" fill="rgb(0,0,0)" font-size="14">IDrawProvider</text>
</g>
</g>
<g id="s21519250">
<polygon id="s21519250" points="79.99999,740.0 280.0,740.0 279.99988,859.99976 79.99999,860.0 " fill="none" stroke-width="2.0" stroke="rgb(0,0,0)"/>
<g id="t21519250">
<text xml:space="preserve" x="161.0" y="768.33594" font-family="Sans,Helvetica" font-weight="bold" fill="rgb(0,0,0)" font-size="14">Route</text>
<text xml:space="preserve" x="85.0" y="753.5498" font-family="Sans,Helvetica" fill="rgb(0,0,0)" font-size="14"/>
<path id="s224893594" d="M 80.0,781.4199 280.0,781.4199 " fill="none" stroke-width="2.0" stroke="rgb(0,0,0)"/>
<text xml:space="preserve" x="85.0" y="805.4961" font-family="Sans,Helvetica" fill="rgb(0,0,0)" font-size="14">- cells : Cell[*]</text>
<text xml:space="preserve" x="85.0" y="753.5498" font-family="Sans,Helvetica" fill="rgb(0,0,0)" font-size="14"/>
<path id="s55832523" d="M 80.0,818.5801 280.0,818.5801 " fill="none" stroke-width="2.0" stroke="rgb(0,0,0)"/>
<text xml:space="preserve" x="85.0" y="842.65625" font-family="Sans,Helvetica" fill="rgb(0,0,0)" font-size="14">+ Draw(IDrawProvider) : void</text>
</g>
</g>
<g id="s211921251">
<polygon id="s211921251" points="80.0,160.0 280.0,160.0 279.99988,280.0 79.99999,280.0 " fill="none" stroke-width="2.0" stroke="rgb(0,0,0)"/>
<g id="t211921251">
<text xml:space="preserve" x="162.5" y="188.33594" font-family="Sans,Helvetica" font-weight="bold" fill="rgb(0,0,0)" font-size="14">Maze</text>
<text xml:space="preserve" x="85.0" y="173.5498" font-family="Sans,Helvetica" fill="rgb(0,0,0)" font-size="14"/>
<path id="s265233320" d="M 80.0,201.41992 280.0,201.41992 " fill="none" stroke-width="2.0" stroke="rgb(0,0,0)"/>
<text xml:space="preserve" x="85.0" y="225.4961" font-family="Sans,Helvetica" fill="rgb(0,0,0)" font-size="14">+ Cells : Cell[*][*]</text>
<text xml:space="preserve" x="85.0" y="173.5498" font-family="Sans,Helvetica" fill="rgb(0,0,0)" font-size="14"/>
<path id="s67079873" d="M 80.0,238.58008 280.0,238.58008 " fill="none" stroke-width="2.0" stroke="rgb(0,0,0)"/>
<text xml:space="preserve" x="85.0" y="262.65625" font-family="Sans,Helvetica" fill="rgb(0,0,0)" font-size="14">+ Draw(IDrawProvider) : void</text>
</g>
</g>
<g id="s134445408">
<polygon id="s134445408" points="420.0,300.0 700.0006,300.0 700.00085,379.99988 420.0,380.00012 " fill="none" stroke-width="2.0" stroke="rgb(0,0,0)"/>
<g id="t134445408">
<text xml:space="preserve" x="519.5004" y="326.91608" font-family="Sans,Helvetica" font-weight="bold" fill="rgb(0,0,0)" font-size="14">MazeBuilder</text>
<text xml:space="preserve" x="425.0" y="312.12994" font-family="Sans,Helvetica" fill="rgb(0,0,0)" font-size="14"/>
<path id="s194299494" d="M 420.0,340.00006 700.00085,340.00006 " fill="none" stroke-width="2.0" stroke="rgb(0,0,0)"/>
<text xml:space="preserve" x="425.0" y="364.07623" font-family="Sans,Helvetica" fill="rgb(0,0,0)" font-size="14">+ Create() : Maze</text>
</g>
</g>
<g id="s146152985">
<polygon id="s146152985" points="420.0,180.0 700.00024,180.0 700.0,260.00024 420.0,260.00024 " fill="none" stroke-width="2.0" stroke="rgb(0,0,0)"/>
<g id="t146152985">
<text xml:space="preserve" x="520.5001" y="206.91614" font-family="Sans,Helvetica" font-weight="bold" fill="rgb(0,0,0)" font-size="14">RouteFinder</text>
<text xml:space="preserve" x="425.0" y="192.13" font-family="Sans,Helvetica" fill="rgb(0,0,0)" font-size="14"/>
<path id="s196066727" d="M 420.0,220.00012 700.00024,220.00012 " fill="none" stroke-width="2.0" stroke="rgb(0,0,0)"/>
<text xml:space="preserve" x="425.0" y="244.0763" font-family="Sans,Helvetica" fill="rgb(0,0,0)" font-size="14">+ Find(Maze) : Route</text>
</g>
</g>
<g id="la51158750">
<path id="s51158750" d="M 80.000244,480.0 -100.00009,480.0 -100.00009,419.99994 " fill="none" stroke-width="2.0" stroke="rgb(0,0,0)" stroke-dasharray="7.0 7.0"/>
<path id="s197579348" d="M -92.26948,429.17804 -100.00009,419.99994 -107.730705,429.17804 " fill="none" stroke-width="2.0" stroke="rgb(0,0,0)"/>
<g id="t51158750">
<text xml:space="preserve" x="-43.999954" y="498.78613" font-family="Sans,Helvetica" fill="rgb(0,0,0)" font-size="14"/>
</g>
</g>
<g id="la41646271">
<path id="s41646271" d="M 80.00001,659.9999 -120.000084,659.9999 -120.00009,419.99994 " fill="none" stroke-width="2.0" stroke="rgb(0,0,0)" stroke-dasharray="7.0 7.0"/>
<path id="s146101757" d="M -112.26948,429.17804 -120.00009,419.99994 -127.730705,429.17804 " fill="none" stroke-width="2.0" stroke="rgb(0,0,0)"/>
<g id="t41646271">
<text xml:space="preserve" x="-124.00008" y="658.7861" font-family="Sans,Helvetica" fill="rgb(0,0,0)" font-size="14"/>
</g>
</g>
<g id="la1493900">
<path id="s1493900" d="M 79.99999,260.0 -80.00001,260.0 -80.0,340.0 " fill="none" stroke-width="2.0" stroke="rgb(0,0,0)" stroke-dasharray="7.0 7.0"/>
<path id="s61693591" d="M -87.73061,330.8219 -80.0,340.0 -72.26939,330.8219 " fill="none" stroke-width="2.0" stroke="rgb(0,0,0)"/>
<g id="t1493900">
<text xml:space="preserve" x="-44.000008" y="252.20605" font-family="Sans,Helvetica" fill="rgb(0,0,0)" font-size="14"/>
</g>
</g>
<g id="la100762325">
<path id="s100762325" d="M 279.99994,220.0 320.0,220.0 320.0,300.0 199.99985,300.0 199.99985,340.0 " fill="none" stroke-width="2.0" stroke="rgb(0,0,0)"/>
<polygon id="s57505924" points="279.99994,220.0 291.3488,213.45679 302.69763,220.0 291.3488,226.54321 " fill="rgb(0,0,0)" stroke-width="2.0" stroke="rgb(0,0,0)"/>
<g id="t100762325">
<text xml:space="preserve" x="303.99994" y="318.78613" font-family="Sans,Helvetica" fill="rgb(0,0,0)" font-size="14"/>
</g>
</g>
<g id="la171952874">
<path id="s171952874" d="M 279.9999,439.99994 320.0,439.99994 320.0,520.0 179.99988,520.0 179.99988,560.0 " fill="none" stroke-width="2.0" stroke="rgb(0,0,0)"/>
<polygon id="s174897261" points="279.9999,439.99994 291.34875,433.45673 302.6976,439.99994 291.34875,446.54315 " fill="rgb(0,0,0)" stroke-width="2.0" stroke="rgb(0,0,0)"/>
<g id="t171952874">
<text xml:space="preserve" x="294.0" y="538.78613" font-family="Sans,Helvetica" fill="rgb(0,0,0)" font-size="14"/>
</g>
</g>
<g id="la133751259">
<path id="s133751259" d="M 279.99976,359.99994 340.0,359.99994 340.0,700.0 180.0,700.0 180.0,740.0 " fill="none" stroke-width="2.0" stroke="rgb(0,0,0)"/>
<polygon id="s6245683" points="180.0,740.0 173.45679,728.6511 180.0,717.3023 186.54321,728.6511 " fill="rgb(255,255,255)" stroke-width="2.0" stroke="rgb(0,0,0)"/>
<g id="t133751259">
<text xml:space="preserve" x="344.0" y="618.786" font-family="Sans,Helvetica" fill="rgb(0,0,0)" font-size="14"/>
</g>
</g>
<g id="la69932152">
<path id="s69932152" d="M 420.0,240.00012 400.0,240.00012 400.0,760.0 279.99997,760.0 " fill="none" stroke-width="2.0" stroke="rgb(0,0,0)" stroke-dasharray="7.0 7.0"/>
<path id="s262762089" d="M 289.17807,752.2694 279.99997,760.0 289.17807,767.7306 " fill="none" stroke-width="2.0" stroke="rgb(0,0,0)"/>
<g id="t69932152">
<text xml:space="preserve" x="404.0" y="568.7862" font-family="Sans,Helvetica" fill="rgb(0,0,0)" font-size="14"/>
</g>
</g>
<g id="la56915793">
<path id="s56915793" d="M 420.0,240.00012 400.0,240.00012 400.0,180.0 279.99997,180.0 " fill="none" stroke-width="2.0" stroke="rgb(0,0,0)" stroke-dasharray="7.0 7.0"/>
<path id="s150876398" d="M 289.17807,172.2694 279.99997,180.0 289.17807,187.7306 " fill="none" stroke-width="2.0" stroke="rgb(0,0,0)"/>
<g id="t56915793">
<text xml:space="preserve" x="384.00006" y="172.20605" font-family="Sans,Helvetica" fill="rgb(0,0,0)" font-size="14"/>
</g>
</g>
<g id="la130526134">
<path id="s130526134" d="M 420.0,320.00006 360.0,320.00006 360.0,180.0 279.99997,180.0 " fill="none" stroke-width="2.0" stroke="rgb(0,0,0)" stroke-dasharray="7.0 7.0"/>
<path id="s221743503" d="M 289.17807,172.2694 279.99997,180.0 289.17807,187.7306 " fill="none" stroke-width="2.0" stroke="rgb(0,0,0)"/>
<g id="t130526134">
<text xml:space="preserve" x="364.0" y="232.20607" font-family="Sans,Helvetica" fill="rgb(0,0,0)" font-size="14"/>
</g>
</g>
</svg>
